<?xml version="1.0" encoding="utf-8"?>
<!-- Generator: Adobe Illustrator 25.4.1, SVG Export Plug-In . SVG Version: 6.00 Build 0)  -->
<svg version="1.1" id="Layer_1" focusable="false" xmlns="http://www.w3.org/2000/svg" xmlns:xlink="http://www.w3.org/1999/xlink"
	 x="0px" y="0px" viewBox="0 0 512 512" style="enable-background:new 0 0 512 512;" xml:space="preserve">
<style type="text/css">
	.st0{fill:#FFFFFF;}
</style>
<path class="st0" d="M496,104c0-13.3-10.7-24-24-24H40c-13.3,0-24,10.7-24,24v24h480V104z M480,24c0-13.3-10.7-24-24-24H56
	C42.7,0,32,10.7,32,24v24h448V24z M256,325.6c-16.6,0-30,9.9-29.9,22.1s13.5,21.7,29.9,21.7s29.7-9.7,29.9-21.7
	S272.6,325.6,256,325.6z M480,160H32c-17.7,0-32,14.3-32,32c0,1,0,1.9,0.1,2.9l26.2,288c1.5,16.5,15.3,29.1,31.9,29.1h395.6
	c16.5,0,30.4-12.6,31.9-29.1l26.2-288c1.6-17.6-11.4-33.2-29-34.8C481.9,160,481,160,480,160z M256,472.9
	c-94.3,0-174.4-54.5-179.2-125.1c-5.1-74.6,75-138.3,179.2-138.3s184.3,63.7,179.2,138.3C430.4,418.4,350.3,472.9,256,472.9
	L256,472.9z"/>
</svg>
